<svg xmlns="http://www.w3.org/2000/svg" width="129.456" height="154.808" viewBox="0 0 129.456 154.808">
  <g id="Group_14103" data-name="Group 14103" transform="translate(-1372.272 -4177.719)">
    <g id="Group_1183" data-name="Group 1183" transform="translate(1232.995 4149.707)" opacity="0.7">
      <g id="Group_1183-2" data-name="Group 1183" transform="translate(139.277 28.012)">
        <path id="Path_2026" data-name="Path 2026" d="M268.242,43.154a2.686,2.686,0,0,0-3.187-2.477c-.869.163-1.742.317-2.611.456a93.635,93.635,0,0,1-15.9,1.233,77.729,77.729,0,0,1-13.322-1.262,68.117,68.117,0,0,1-10.778-2.921,61.571,61.571,0,0,1-8.283-3.722,52.5,52.5,0,0,1-5.829-3.674c-.679-.5-1.353-1.015-2-1.555a3.892,3.892,0,0,0-2.107-1.219,3.27,3.27,0,0,0-2.135.931c-1.063.857-2.131,1.694-3.249,2.477a54.126,54.126,0,0,1-6.23,3.716,61.767,61.767,0,0,1-8.652,3.619,68.516,68.516,0,0,1-11.124,2.683,78.877,78.877,0,0,1-13.639.917,96.6,96.6,0,0,1-16.195-1.682,2.694,2.694,0,0,0-3.194,2.472c-.862,14.088-3.1,72.989,17.609,98.908,21.787,27.259,40.635,38.092,45.439,40.484a2.669,2.669,0,0,0,2.361.012c4.833-2.357,23.8-13.073,45.433-40.5,20.539-26.037,18.433-84.812,17.6-98.9Z" transform="translate(-139.277 -28.012)" fill="#333"/>
      </g>
      <g id="Path_2027" data-name="Path 2027" transform="translate(-73.059 -110.96)" fill="#2d3cbe">
        <path d="M 267.2216186523438 248.3144836425781 C 265.1218566894531 248.3144836425781 263.1103210449219 247.6496124267578 261.4044494628906 246.3917388916016 L 261.40234375 246.3901824951172 L 261.4002380371094 246.3886260986328 L 246.6851348876953 235.4783782958984 C 244.5853576660156 233.9232482910156 243.217041015625 231.6427154541016 242.8330535888672 229.0575256347656 C 242.44921875 226.4732208251953 243.0948791503906 223.8937225341797 244.6511077880859 221.7942199707031 C 245.5772399902344 220.5467681884766 246.7989196777344 219.5279693603516 248.1849517822266 218.8467712402344 C 249.5238647460938 218.1887512207031 251.0219116210938 217.8409423828125 252.5171813964844 217.8409423828125 C 254.6234588623047 217.8409423828125 256.6343078613281 218.5038452148438 258.3323364257812 219.7579650878906 L 265.9091491699219 225.3773193359375 L 298.3330078125 189.3978424072266 C 300.1871032714844 187.3436126708984 302.8363647460938 186.1660919189453 305.6025390625 186.1660919189453 C 308.0243225097656 186.1660919189453 310.3505859375 187.0599212646484 312.1528015136719 188.6829223632812 C 314.0943298339844 190.4338989257812 315.237548828125 192.8340148925781 315.3728942871094 195.4420928955078 C 315.4532470703125 196.9906005859375 315.1725158691406 198.5025482177734 314.5650634765625 199.8813323974609 L 315.1044311523438 200.0143585205078 L 312.8711242675781 202.4959411621094 L 274.496826171875 245.0784149169922 C 272.6389770507812 247.1355590820312 269.98779296875 248.3144836425781 267.2216186523438 248.3144836425781 Z" stroke="none"/>
        <path d="M 305.6025390625 188.1660919189453 C 303.47509765625 188.1660919189453 301.3561401367188 189.0334014892578 299.8187255859375 190.7367401123047 L 266.1778869628906 228.066650390625 L 257.1441345214844 221.3667449951172 C 253.6884765625 218.8144989013672 248.8171081542969 219.5379028320312 246.2578430175781 222.9851989746094 C 243.6982116699219 226.4383697509766 244.4206848144531 231.3124847412109 247.8762817382812 233.8717956542969 L 262.5914001464844 244.7820434570312 C 263.9844055175781 245.8092041015625 265.6102294921875 246.3144836425781 267.2216186523438 246.3144836425781 C 269.3610534667969 246.3144836425781 271.4789733886719 245.4360046386719 273.0111083984375 243.739501953125 L 311.3854064941406 201.1570434570312 L 311.3829345703125 201.1564331054688 C 314.262939453125 197.9658966064453 314.0061340332031 193.0475463867188 310.8143920898438 190.1690979003906 C 309.3238830566406 188.8267822265625 307.4600219726562 188.1660919189453 305.6025390625 188.1660919189453 M 305.6025390625 184.1660919189453 C 308.5194702148438 184.1660919189453 311.321044921875 185.2424011230469 313.4912109375 187.1967468261719 C 315.830322265625 189.3063049316406 317.2071838378906 192.1970825195312 317.3701782226562 195.3384399414062 C 317.4252319335938 196.3990325927734 317.3397216796875 197.4451293945312 317.1211547851562 198.4558258056641 L 318.8219604492188 198.8767242431641 L 314.3568420410156 203.8348236083984 L 275.9825439453125 246.4172973632812 C 273.7447509765625 248.8951721191406 270.5525512695312 250.3144836425781 267.2216186523438 250.3144836425781 C 264.6916198730469 250.3144836425781 262.2696533203125 249.5146484375 260.2174987792969 248.0014343261719 L 260.2090759277344 247.9952087402344 L 245.4939270019531 237.0849609375 C 242.9654235839844 235.2122650146484 241.3172607421875 232.4653167724609 240.8547668457031 229.3513488769531 C 240.3924560546875 226.2386779785156 241.1700744628906 223.1318817138672 243.0443725585938 220.6032562255859 C 244.1603393554688 219.10009765625 245.6322631835938 217.8728790283203 247.3028564453125 217.0518798828125 C 248.9145812988281 216.2597961425781 250.7175598144531 215.841064453125 252.5168762207031 215.8409423828125 C 255.053955078125 215.8407745361328 257.4757690429688 216.6389617919922 259.5205383300781 218.1491851806641 L 259.5269165039062 218.1539154052734 L 265.6404113769531 222.6880035400391 L 296.8472900390625 188.0589599609375 C 299.0809631347656 185.5841522216797 302.2714233398438 184.1660919189453 305.6025390625 184.1660919189453 Z" stroke="none" fill="#fff"/>
      </g>
    </g>
  </g>
</svg>
