<svg xmlns="http://www.w3.org/2000/svg" width="142.696" height="154.899" viewBox="0 0 142.696 154.899">
  <g id="Group_14107" data-name="Group 14107" transform="translate(-421.672 -5594.719)">
    <g id="noun-justice-355373" transform="translate(304.573 5566.719)">
      <path id="Path_11716" data-name="Path 11716" d="M282.621,146.794H319.1a3.236,3.236,0,0,0,3.234-3.232v-5.14a3.238,3.238,0,0,0-3.234-3.234H282.621a3.239,3.239,0,0,0-3.234,3.234v5.14a3.236,3.236,0,0,0,3.234,3.231Z" transform="translate(-112.412 -74.245)" fill="#6f6f6f"/>
      <path id="Path_11717" data-name="Path 11717" d="M327.565,58.509h11.607a1.245,1.245,0,0,0,1.244-1.244V31.232A3.237,3.237,0,0,0,337.182,28h-7.628a3.239,3.239,0,0,0-3.234,3.232V57.263a1.246,1.246,0,0,0,1.245,1.246Z" transform="translate(-144.92)" fill="#6f6f6f"/>
      <path id="Path_11718" data-name="Path 11718" d="M339.168,180.69H327.561a1.244,1.244,0,0,0-1.244,1.244V271.5c0,3.624,1.2,17.163,7.048,17.163,5.754,0,7.048-12.709,7.048-17.163V181.934a1.247,1.247,0,0,0-1.246-1.244Zm-4.56,91.5a1.244,1.244,0,0,1-2.488,0V196.914a1.244,1.244,0,1,1,2.487,0Z" transform="translate(-144.919 -105.763)" fill="#6f6f6f"/>
      <path id="Path_11719" data-name="Path 11719" d="M177.232,199.09a1.245,1.245,0,0,0-1.413-1.047l-28.832.023a1.239,1.239,0,0,0-1.049,1.117L117.249,251.5c-.013.026-.023.05-.035.078s-.026.056-.036.086a1.019,1.019,0,0,0-.052.179c0,.029-.013.056-.017.086a1.183,1.183,0,0,0-.011.205c0,.023,0,.043,0,.065a1.14,1.14,0,0,0,.05.259.047.047,0,0,0,0,.017,23.121,23.121,0,0,0,5.879,8.721c4.049,3.9,11.521,8.552,24.136,8.552S167.256,265.1,171.3,261.2a23.2,23.2,0,0,0,5.881-8.721c0-.007,0-.012,0-.017a1.189,1.189,0,0,0,.048-.259c0-.02,0-.04,0-.06a1.245,1.245,0,0,0-.011-.21c0-.029-.012-.056-.017-.084a1.245,1.245,0,0,0-.05-.179c-.012-.031-.026-.06-.038-.091s-.019-.05-.032-.074L149,200.278l27.181.227a1.247,1.247,0,0,0,1.047-1.415ZM120.44,250.858l26.73-48.752,26.73,48.749H120.439Z" transform="translate(0 -117.774)" fill="#00be28"/>
      <path id="Path_11721" data-name="Path 11721" d="M117.112,199.09a1.245,1.245,0,0,1,1.413-1.047l28.832.023a1.239,1.239,0,0,1,1.049,1.116l28.689,52.32c.013.026.023.05.035.078s.026.056.036.086a1.017,1.017,0,0,1,.052.179c0,.029.013.056.017.086a1.184,1.184,0,0,1,.011.205c0,.023,0,.043,0,.065a1.141,1.141,0,0,1-.05.259.047.047,0,0,1,0,.017,23.122,23.122,0,0,1-5.879,8.721c-4.049,3.9-11.521,8.552-24.136,8.552s-20.087-4.651-24.134-8.552a23.2,23.2,0,0,1-5.881-8.721c0-.007,0-.012,0-.017a1.19,1.19,0,0,1-.048-.259c0-.02,0-.04,0-.06a1.247,1.247,0,0,1,.011-.21c0-.029.012-.056.017-.084a1.246,1.246,0,0,1,.05-.179c.012-.031.026-.06.038-.091s.019-.05.032-.074l28.083-51.226-27.181.227a1.247,1.247,0,0,1-1.047-1.415ZM173.9,250.858l-26.73-48.752-26.73,48.749h53.461Z" transform="translate(82.55 -117.774)" fill="#00be28"/>
    </g>
  </g>
</svg>
