<svg xmlns="http://www.w3.org/2000/svg" width="158.276" height="154.899" viewBox="0 0 158.276 154.899">
  <g id="Group_14108" data-name="Group 14108" transform="translate(-880.862 -5594.719)">
    <g id="noun-respect-3688528" transform="translate(786.802 5565.193)">
      <path id="Path_10058" data-name="Path 10058" d="M285.407,448.691a4.9,4.9,0,0,1-.678-6.936l6.464-7.692a4.936,4.936,0,0,1,7.572,6.332l-6.464,7.692a5.156,5.156,0,0,1-6.894.6Z" transform="translate(-130.933 -278.259)" fill="#6577fc"/>
      <path id="Path_10059" data-name="Path 10059" d="M229.837,401.871a4.9,4.9,0,0,1-.678-6.936l6.464-7.692a4.935,4.935,0,0,1,7.572,6.332l-6.464,7.692a5.157,5.157,0,0,1-6.894.6Z" transform="translate(-92.546 -245.916)" fill="#6577fc"/>
      <path id="Path_10060" data-name="Path 10060" d="M173.177,356.131a4.9,4.9,0,0,1-.678-6.936l6.464-7.692a4.935,4.935,0,0,1,7.572,6.332l-6.464,7.692a5.156,5.156,0,0,1-6.894.6Z" transform="translate(-53.406 -214.32)" fill="#6577fc"/>
      <path id="Path_10061" data-name="Path 10061" d="M118.707,308.211a4.9,4.9,0,0,1-.678-6.936l6.464-7.692a4.935,4.935,0,0,1,7.572,6.332l-6.464,7.692a5.155,5.155,0,0,1-6.894.6Z" transform="translate(-15.778 -181.217)" fill="#6577fc"/>
      <path id="Path_10062" data-name="Path 10062" d="M351.931,36.461c-7.7,3.975-13.026,11.718-15.287,22.454a5.89,5.89,0,0,1-.43,1.288L321.93,90.763a6.985,6.985,0,0,0,2.249,8.623,7.165,7.165,0,0,0,10.364-2.516L346.56,73.137a6.011,6.011,0,0,1,9.075-1.884l43.2,36.369c32.424-52.918-18.3-88.861-46.9-71.162Z" transform="translate(-156.957 -1.64)" fill="#6577fc"/>
      <path id="Path_10063" data-name="Path 10063" d="M244.764,122.433s-7.265-8.688-7.247-8.716L196.747,79.9l-10.077,19.9a17.5,17.5,0,0,1-25.39,6.352,17.249,17.249,0,0,1-5.746-21.464l13.973-29.943c-.075-.138-2.5-12.656-12.518-19.2a34.389,34.389,0,0,0-18.946-6.028c-14.525,0-28.771,8.472-36.3,21.585a59.625,59.625,0,0,0,.333,59.149l1.969-2.342a11.466,11.466,0,0,1,16.195-1.417,11.242,11.242,0,0,1,1.222,15.714,11.266,11.266,0,0,1,17.274,14.469,11.266,11.266,0,0,1,17.272,14.47,11.266,11.266,0,0,1,17.272,14.469l-6.386,7.6q1.928,1.3,3.912,2.615l6.775,5.848a11.263,11.263,0,0,0,15.735-16.06l.593.519a11,11,0,0,0,16.868-14.13l.031.037a10.809,10.809,0,1,0,16.638-13.8l-.647-.769a11.715,11.715,0,0,0,17.96-15.049Z" fill="#6f6f6f"/>
    </g>
  </g>
</svg>
