<svg xmlns="http://www.w3.org/2000/svg" width="109.398" height="138.098" viewBox="0 0 109.398 138.098">
  <g id="noun-maker-space-21038" transform="translate(-65.145 -40.93)" opacity="0.7">
    <path id="Path_10025" data-name="Path 10025" d="M899.87,450V572.816h36.845V450Zm28.657,16.377H916.245v8.186h12.281v8.188h-6.141v8.188h6.141v8.186H916.245v8.188h12.281V515.5h-6.141v8.188h6.141v8.188H916.245v8.186h12.281v8.188h-6.141v8.186h6.141v8.188H908.059V458.189h20.468Z" transform="translate(-763.672 -395.287)" fill="#3c3c3c" stroke="#fff" stroke-width="3"/>
    <path id="Path_10027" data-name="Path 10027" d="M511.831,432.645c2.022-3.3,3.886-7.477,3.919-11.971a16.189,16.189,0,0,0-4.973-11.73,48.19,48.19,0,0,0-3.741-3.246c-4.433-3.58-7.339-6.237-7.339-10.234,0-5.284,5.048-11.529,6.991-13.488a4.092,4.092,0,0,0-5.793-5.781c-.959.959-9.387,9.66-9.387,19.271,0,8.2,6,13.057,10.377,16.6,1.14.928,2.227,1.79,3.1,2.671a7.968,7.968,0,0,1,2.574,5.86c-.024,4.429-3.413,9.242-5.577,11.729-14.172.216-26.854,3.191-26.854,20.451v16.377c0,20.124,10.72,40.939,28.657,40.939,18.616,0,28.657-21.093,28.657-40.939V452.774c0-14.671-9.16-19.022-20.612-20.132Zm12.425,20.132v4.1H507.881V440.583C521.741,441.177,524.256,445,524.256,452.776Zm-24.563-12.193v16.288H483.318v-4.1C483.318,445,485.831,441.177,499.693,440.583Zm4.1,61.319c-12.641,0-20.469-17-20.469-32.749v-4.1h40.939v4.1c0,13.6-6.349,32.749-20.468,32.749Z" transform="translate(-408.485 -332.563)" fill="#001efa" stroke="#fff" stroke-width="3"/>
  </g>
</svg>
