<svg xmlns="http://www.w3.org/2000/svg" width="172.603" height="154.808" viewBox="0 0 172.603 154.808">
  <g id="Group_14102" data-name="Group 14102" transform="translate(-873.698 -4177.719)">
    <g id="Group_1181" data-name="Group 1181" transform="translate(780.429 4127.977)" opacity="0.7">
      <path id="Path_2011" data-name="Path 2011" d="M120.828,384.5a18.38,18.38,0,0,0,9.179-14.212c5.6,6.315,12.734,10.815,20.224,9.427,1.511-.284,5.334-3.048,5.334-3.048a8.373,8.373,0,0,0,3.111-11.422l-.583-1.017a40.877,40.877,0,0,1-19.175-33.543l-.575-1a8.369,8.369,0,0,0-11.422-3.111s-4.324,1.887-5.33,3.045c-5,5.75-4.742,14.185-2.141,22.212a18.41,18.41,0,1,0,1.378,32.672Z" transform="translate(0 -183.034)" fill="#333"/>
      <path id="Path_2012" data-name="Path 2012" d="M472.847,379.376a18.4,18.4,0,0,0-23.5-26.048c2.679-8.006,3.018-16.436-1.928-22.234-1-1.167-5.3-3.1-5.3-3.1a8.37,8.37,0,0,0-11.45,3l-.581.993a40.89,40.89,0,0,1-19.507,33.376l-.583,1a8.368,8.368,0,0,0,3,11.45s3.8,2.806,5.3,3.1c7.477,1.463,14.656-2.97,20.317-9.233a18.4,18.4,0,0,0,34.228,7.7Z" transform="translate(-209.493 -183.953)" fill="#333"/>
      <path id="Path_2013" data-name="Path 2013" d="M264.3,102.2a8.371,8.371,0,0,0,8.37,8.37h1.145a40.8,40.8,0,0,1,38.671,0h1.148A8.37,8.37,0,0,0,322,102.2s.506-4.692,0-6.143c-2.508-7.195-9.959-11.157-18.221-12.882a18.416,18.416,0,1,0-21.26,0c-8.264,1.726-15.714,5.687-18.221,12.882-.507,1.45,0,6.143,0,6.143Z" transform="translate(-113.385)" fill="#333"/>
      <path id="Path_2014" data-name="Path 2014" d="M449.637,215.065l4.344-4.059a57.2,57.2,0,0,0-6.24-5.753l-3.691,4.659a51.617,51.617,0,0,1,5.587,5.153Z" transform="translate(-232.86 -103.233)" fill="#ea1b00"/>
      <path id="Path_2015" data-name="Path 2015" d="M338.072,488.695l-.429,5.929c1.383.1,2.791.151,4.181.151,1.435,0,2.881-.054,4.3-.16l-.444-5.928a52.166,52.166,0,0,1-7.606.008Z" transform="translate(-162.223 -291.386)" fill="#ea1b00"/>
      <path id="Path_2016" data-name="Path 2016" d="M393.346,484.188l-2.18-5.531a50.819,50.819,0,0,1-7.257,2.243l1.322,5.8a56.461,56.461,0,0,0,8.114-2.508Z" transform="translate(-192.937 -284.728)" fill="#ea1b00"/>
      <path id="Path_2017" data-name="Path 2017" d="M296.622,486.8l1.312-5.8a50.555,50.555,0,0,1-7.268-2.23l-2.165,5.536a56.756,56.756,0,0,0,8.122,2.491Z" transform="translate(-129.601 -284.803)" fill="#ea1b00"/>
      <path id="Path_2018" data-name="Path 2018" d="M182.86,296.588l5.882.868a50.749,50.749,0,0,1,1.669-7.413l-5.685-1.736a56.4,56.4,0,0,0-1.866,8.281Z" transform="translate(-59.474 -158.367)" fill="#ea1b00"/>
      <path id="Path_2019" data-name="Path 2019" d="M206.736,246.2l-4.916-3.343a57.139,57.139,0,0,0-4.236,7.361l5.36,2.57a50.421,50.421,0,0,1,3.792-6.588Z" transform="translate(-69.247 -128.195)" fill="#ea1b00"/>
      <path id="Path_2020" data-name="Path 2020" d="M225.89,211.659l4.365,4.034a51.515,51.515,0,0,1,5.56-5.186l-3.719-4.637A57.329,57.329,0,0,0,225.89,211.659Z" transform="translate(-88.038 -103.644)" fill="#ea1b00"/>
      <path id="Path_2021" data-name="Path 2021" d="M502.157,295.576a56.922,56.922,0,0,0-1.914-8.271l-5.673,1.774a51.078,51.078,0,0,1,1.712,7.4Z" transform="translate(-266.397 -157.702)" fill="#ea1b00"/>
      <path id="Path_2022" data-name="Path 2022" d="M474.84,245.418a51.012,51.012,0,0,1,3.828,6.563l5.344-2.6a57.16,57.16,0,0,0-4.277-7.33Z" transform="translate(-253.299 -127.66)" fill="#ea1b00"/>
      <path id="Path_2023" data-name="Path 2023" d="M290.245,310.319h0a30.579,30.579,0,1,0,0-61.159h0a30.579,30.579,0,0,0,0,61.159Zm-23.3-17.829h8.4a33.592,33.592,0,0,0,5.18,11.959A26.706,26.706,0,0,1,266.944,292.49Zm11.2-12.749a54.046,54.046,0,0,1,.658-8.507h22.888a55.385,55.385,0,0,1,0,17.005H278.8a53.965,53.965,0,0,1-.658-8.5Zm12.1,26.326c-4.071,0-8.333-5.14-10.55-13.578h21.1c-2.217,8.439-6.479,13.578-10.553,13.578Zm9.72-1.618a33.566,33.566,0,0,0,5.182-11.959h8.406A26.705,26.705,0,0,1,299.964,304.449Zm16.859-24.708a26.4,26.4,0,0,1-1.421,8.5H305.97a57.707,57.707,0,0,0,0-17.005H315.4a26.413,26.413,0,0,1,1.422,8.507Zm-3.275-12.757h-8.4a33.512,33.512,0,0,0-5.18-11.951A26.684,26.684,0,0,1,313.549,266.983Zm-23.3-13.57c4.071,0,8.333,5.138,10.553,13.57h-21.1c2.219-8.432,6.482-13.57,10.55-13.57Zm-9.717,1.617a33.6,33.6,0,0,0-5.178,11.951h-8.4a26.711,26.711,0,0,1,13.579-11.951Zm-6,16.2a57.662,57.662,0,0,0,0,17.005H265.09a26.164,26.164,0,0,1,0-17.005Z" transform="translate(-110.459 -132.38)" fill="#ea1b00"/>
    </g>
  </g>
</svg>
