<svg xmlns="http://www.w3.org/2000/svg" width="180.021" height="154.808" viewBox="0 0 180.021 154.808">
  <g id="Group_14105" data-name="Group 14105" transform="translate(-869.989 -5097.719)">
    <g id="noun-diversity-642226" transform="translate(729.993 4980.121)">
      <path id="Path_10041" data-name="Path 10041" d="M433.276,249.2c-5.542,0-12.049,2.411-18.315,6.507,5.3,4.1,9.881,9.639,14.46,16.146a100.042,100.042,0,0,1,14.46,38.076,93.9,93.9,0,0,1,1.205,13.977,47.875,47.875,0,0,1-.482,6.507c11.809-.963,22.171-3.856,26.99-8.676a16.182,16.182,0,0,0,5.062-11.809c-.242-37.593-25.546-60.729-43.378-60.729Z" transform="translate(-156.638 -74.969)" fill="#6f6f6f"/>
      <path id="Path_10042" data-name="Path 10042" d="M421.77,158.808a22.041,22.041,0,0,0,13.495,4.337,22.351,22.351,0,0,0,16.386-6.988,27.51,27.51,0,0,0,1.928-2.411A22.778,22.778,0,0,0,435.023,117.6a22.543,22.543,0,0,0-16.146,6.748,37.611,37.611,0,0,1,5.542,19.762c.482,5.3-.723,9.881-2.649,14.7Z" transform="translate(-158.869)" fill="#6f6f6f"/>
      <path id="Path_10043" data-name="Path 10043" d="M400.4,437.792a74.4,74.4,0,0,0,12.29-3.614,30.093,30.093,0,0,0,7.712-4.819,46.674,46.674,0,0,0,3.614-5.784,16.487,16.487,0,0,0,1.446-6.988,42.753,42.753,0,0,0-.24-5.542Z" transform="translate(-148.344 -167.167)" fill="#5cd167"/>
      <path id="Path_10044" data-name="Path 10044" d="M386.033,360.639,338.8,410.765a106.593,106.593,0,0,0,15.183-.482l34.943-37.836a70.331,70.331,0,0,0-2.893-11.807Z" transform="translate(-113.252 -138.452)" fill="#5cd167"/>
      <path id="Path_10045" data-name="Path 10045" d="M348.009,319.2,287.28,384.506a104.6,104.6,0,0,0,13.012,2.168l53.5-57.114a71.5,71.5,0,0,0-5.784-10.363Z" transform="translate(-83.903 -114.844)" fill="#5cd167"/>
      <path id="Path_10046" data-name="Path 10046" d="M312.749,287.839,246.96,358.448l.963.963a31.684,31.684,0,0,0,7.953,4.819c.24,0,.482.24.723.24l64.1-68.681a61.894,61.894,0,0,0-7.953-7.951Z" transform="translate(-60.934 -96.98)" fill="#5cd167"/>
      <path id="Path_10047" data-name="Path 10047" d="M340.021,194.29a25.2,25.2,0,0,0,25.062-25.062,26.246,26.246,0,0,0-.723-6.265l-28.916,31.085a29.019,29.019,0,0,0,4.577.242Z" transform="translate(-111.34 -25.843)" fill="#5cd167"/>
      <path id="Path_10048" data-name="Path 10048" d="M306.916,171.375l33.257-35.425a24.326,24.326,0,0,0-7.953-7.712l-33.737,35.907a29.965,29.965,0,0,0,8.434,7.23Z" transform="translate(-90.285 -6.061)" fill="#5cd167"/>
      <path id="Path_10049" data-name="Path 10049" d="M294.56,269.366a41.643,41.643,0,0,0-5.062-1.688l-53.017,56.391a75.717,75.717,0,0,0-.723,10.6,14.135,14.135,0,0,0,.963,5.542l63.62-68.2a61.506,61.506,0,0,0-5.783-2.649Z" transform="translate(-54.553 -85.495)" fill="#5cd167"/>
      <path id="Path_10050" data-name="Path 10050" d="M319.488,120.563a25.71,25.71,0,0,0-6.025-.723A25.354,25.354,0,0,0,288.4,144.9a27.173,27.173,0,0,0,1.205,7.712Z" transform="translate(-84.542 -1.277)" fill="#5cd167"/>
      <path id="Path_10051" data-name="Path 10051" d="M284.647,266.56a19.134,19.134,0,0,0-5.3,1.446,37.139,37.139,0,0,0-9.639,5.062c-10.6,6.988-20.485,19.762-25.544,36.871Z" transform="translate(-59.34 -84.858)" fill="#5cd167"/>
      <path id="Path_10052" data-name="Path 10052" d="M193.306,156.64a22.76,22.76,0,0,0,16.386,6.988,20.145,20.145,0,0,0,11.809-3.614,39.861,39.861,0,0,1-3.133-15.906,36.649,36.649,0,0,1,6.507-20.965,22.036,22.036,0,0,0-14.941-5.542,22.882,22.882,0,0,0-22.893,22.893,21.344,21.344,0,0,0,4.337,13.255c.723,1.2,1.446,2.168,1.928,2.891Z" transform="translate(-26.8 -0.001)" fill="#6f6f6f"/>
      <path id="Path_10053" data-name="Path 10053" d="M184.58,271.214c4.819-6.988,9.639-12.772,15.663-17.111-5.542-3.856-11.809-6.025-17.111-6.025-18.074.24-43.137,23.616-43.137,61.211a14.863,14.863,0,0,0,5.062,11.809c4.819,4.337,14.218,7.47,24.822,8.676a28.218,28.218,0,0,1-.963-6.507c0-17.59,6.023-37.111,15.663-52.053Z" transform="translate(0 -74.33)" fill="#6f6f6f"/>
    </g>
  </g>
</svg>
