<svg xmlns="http://www.w3.org/2000/svg" width="215.289" height="262.351" viewBox="0 0 215.289 262.351">
  <g id="Group_9811" data-name="Group 9811" transform="translate(-93.077 -160.825)">
    <path id="Path_11629" data-name="Path 11629" d="M302.531,337.021a44.17,44.17,0,0,0,3.884-8.616l1.942-12.135a41.745,41.745,0,0,0-3.762-18.2l-5.277-12.135a31.669,31.669,0,0,1,.972-18.2l5.457-12.135a42.057,42.057,0,0,0,2.427-18.2l-2.788-12.135a37.985,37.985,0,0,0-2.852-6.067A42.124,42.124,0,0,0,292.1,207.059s-8.713-8.253-39.5-12.135A31.064,31.064,0,0,1,238.158,182a42.475,42.475,0,0,0-31.368-21.176l-12.132.244a42.472,42.472,0,0,0-31.428,21.173,31.176,31.176,0,0,1-26.94,15.715,43.259,43.259,0,0,0-37.433,64.861,31.305,31.305,0,0,1,0,31.125,43.315,43.315,0,0,0,15.471,58.731L97.581,369.662a11.226,11.226,0,0,0,6.067,19.052l21.417,3.7,3.762,21.417a11.23,11.23,0,0,0,7.706,8.86,12.737,12.737,0,0,0,3.4.485,11.279,11.279,0,0,0,7.95-3.277l30.337-30.337a43.261,43.261,0,0,0,45.2,0l29.608,29.852a11.649,11.649,0,0,0,8.372,3.518,10.327,10.327,0,0,0,3.581-.607,11.651,11.651,0,0,0,8.068-9.223l3.337-20.385,20.325-3.64a11.715,11.715,0,0,0,5.786-2.717c1.641-1.427,3.5-6.929,3.5-6.929l-4.432-12.319-14.5-14.44A42.455,42.455,0,0,0,302.531,337.021ZM140.418,410.132,136.9,389.747l0,0a11.286,11.286,0,0,0-9.22-9.161l-20.266-3.64,19.415-19.356a45.468,45.468,0,0,0,9.464,1.154,31.068,31.068,0,0,1,26.94,15.594,42.24,42.24,0,0,0,5.52,7.4Zm154.231-33.189-20.564,3.519h0a12.134,12.134,0,0,0-9.648,9.648L261.4,410.557,232.643,381.8a42.111,42.111,0,0,0,5.52-7.4,31.071,31.071,0,0,1,27-15.653,41.952,41.952,0,0,0,9.648-1.154Zm-29.488-30.336a43.326,43.326,0,0,0-37.436,21.661,31.185,31.185,0,0,1-53.937,0l-.06.06h0a43.316,43.316,0,0,0-37.436-21.72,31.124,31.124,0,0,1-26.937-46.659,43.379,43.379,0,0,0,0-43.26,31.124,31.124,0,0,1,26.937-46.6,43.319,43.319,0,0,0,37.436-21.661,31.188,31.188,0,0,1,53.94,0,43.32,43.32,0,0,0,37.5,21.661,31.126,31.126,0,0,1,26.94,46.659,43.379,43.379,0,0,0,0,43.26,31.126,31.126,0,0,1-26.94,46.6Z" fill="#626262"/>
    <path id="Path_11630" data-name="Path 11630" d="M292.781,295.006a79.9,79.9,0,1,0-23.4,56.443,79.846,79.846,0,0,0,23.4-56.443Zm-79.846,67.71A67.769,67.769,0,1,1,260.8,342.866a67.713,67.713,0,0,1-47.862,19.849Z" transform="translate(-12.267 -16.659)" fill="#626262"/>
    <path id="Path_11631" data-name="Path 11631" d="M276.588,289.831a9.826,9.826,0,0,0-9.342-6.734H242.552l-7.646-23.6a9.709,9.709,0,0,0-9.342-6.8,9.832,9.832,0,0,0-9.345,6.8l-7.585,23.481H183.94a9.868,9.868,0,0,0-5.58,17.836l19.962,14.5-7.643,23.481h0a9.828,9.828,0,0,0,15.168,10.98l19.9-14.5,19.962,14.5a9.829,9.829,0,0,0,15.169-10.98l-7.828-23.359,19.962-14.5a9.829,9.829,0,0,0,3.578-11.1Zm-32.035,16.807a9.768,9.768,0,0,0-3.581,10.981l6.067,18.2-15.531-11.284a9.949,9.949,0,0,0-11.588,0l-15.531,11.284,6.067-18.2h0a9.767,9.767,0,0,0-3.578-10.981l-15.593-11.284h19.234v0a9.827,9.827,0,0,0,9.4-6.793l6.067-18.2,6.067,18.2a9.821,9.821,0,0,0,9.342,6.793h19.293Z" transform="translate(-24.9 -28.168)" fill="#626262"/>
  </g>
</svg>
