<svg xmlns="http://www.w3.org/2000/svg" width="159.117" height="154.808" viewBox="0 0 159.117 154.808">
  <g id="Group_14101" data-name="Group 14101" transform="translate(-416 -4177.719)">
    <g id="Group_1182" data-name="Group 1182" transform="translate(340.559 4164.842)" opacity="0.7">
      <g id="Group_1182-2" data-name="Group 1182" transform="translate(75.442 60.261)">
        <path id="Path_2024" data-name="Path 2024" d="M234.513,223.183a19.976,19.976,0,0,1-5.809,15.481L200.566,266.77v17.054H161.328l.162-21.728a40.143,40.143,0,0,1,11.749-28.219l23.951-24.048a8.112,8.112,0,0,1,11.976.584,8.325,8.325,0,0,1-.78,11.1l-11.553,11.553h0a2.678,2.678,0,0,0,.325,4.072,2.757,2.757,0,0,0,3.537-.374l13.29-13.29a9.522,9.522,0,0,0,2.824-7.318l-2.045-30.831a8.4,8.4,0,0,1,16.764-1.055Zm-97.7,10.694-24-24.048a8.112,8.112,0,0,0-11.976.584,8.325,8.325,0,0,0,.78,11.1l11.553,11.553h0a2.677,2.677,0,0,1-.325,4.072,2.758,2.758,0,0,1-3.537-.374l-13.29-13.29a9.523,9.523,0,0,1-2.824-7.318l2.061-30.831h0a8.4,8.4,0,0,0-16.763-1.055l-3,38.913A19.975,19.975,0,0,0,81.3,238.664l28.138,28.105v17.054h39.238L148.51,262.1a40.146,40.146,0,0,0-11.7-28.219Z" transform="translate(-75.442 -176.4)" fill="#333"/>
      </g>
      <path id="Path_2025" data-name="Path 2025" d="M290.571,88.657c11.181-11.181,14.475-33.022-26.45-74.92h0a2.937,2.937,0,0,0-4.154,0c-52.8,54.085-31.985,74.757-15.627,82.207a81.232,81.232,0,0,1,10.58-30.831l.1-.13a.666.666,0,0,1,1.136.487v45.047a6.361,6.361,0,0,0,5.647,6.312,5.971,5.971,0,0,0,6.3-5.956V99.629c3.262-.6,14.75-3.229,22.474-10.97Z" transform="translate(-107.061 0)" fill="#18be28"/>
    </g>
  </g>
</svg>
